<svg xmlns="http://www.w3.org/2000/svg" width="20.02" height="15.778" viewBox="0 0 20.02 15.778">
  <defs>
    <style>
      .cls-1 {
        fill: none;
        stroke: #ccc;
      }
    </style>
  </defs>
  <path id="Icon_awesome-comments" data-name="Icon awesome-comments" class="cls-1" d="M13.722,7.528c0-2.916-3.071-5.278-6.861-5.278S0,4.612,0,7.528a4.475,4.475,0,0,0,1.253,3.035,7.425,7.425,0,0,1-1.181,1.8.262.262,0,0,0-.049.287.258.258,0,0,0,.241.158,5.808,5.808,0,0,0,2.926-.825,8.393,8.393,0,0,0,3.671.825C10.651,12.806,13.722,10.444,13.722,7.528Zm4.024,7.257A4.469,4.469,0,0,0,19,11.75c0-2.207-1.765-4.1-4.265-4.885a4.9,4.9,0,0,1,.043.663c0,3.493-3.553,6.333-7.917,6.333A9.89,9.89,0,0,1,5.815,13.8a7.13,7.13,0,0,0,6.323,3.229A8.347,8.347,0,0,0,15.81,16.2a5.808,5.808,0,0,0,2.926.825.26.26,0,0,0,.241-.158.264.264,0,0,0-.049-.287A7.346,7.346,0,0,1,17.747,14.785Z" transform="translate(0.51 -1.75)"/>
</svg>
