<?xml version="1.0" encoding="utf-8"?>
<!-- Generator: Adobe Illustrator 23.0.1, SVG Export Plug-In . SVG Version: 6.00 Build 0)  -->
<svg version="1.1" id="Camada_1" xmlns="http://www.w3.org/2000/svg" xmlns:xlink="http://www.w3.org/1999/xlink" x="0px" y="0px"
	 viewBox="0 0 16.8 19" style="enable-background:new 0 0 16.8 19;" width="16.75" height="19" xml:space="preserve">
<style type="text/css">
	.st0{fill:none;stroke:#FFFFFF;}
</style>
<path id="Icon_awesome-unlock-alt" class="st0" d="M0.5,13.6c0-1.3,0-2.4,0-2.4c0-0.9,0.8-1.7,1.7-1.7H3V5.9c0-3,2.4-5.4,5.3-5.4
	c3,0,5.4,2.4,5.4,5.3v3.7l0.8,0c0.9,0,1.7,0.8,1.7,1.7v5.6c0,0.9-0.8,1.7-1.7,1.7H2.2c-0.9,0-1.7-0.8-1.7-1.7
	C0.5,16.8,0.5,15.1,0.5,13.6z M6.2,4.5C6,4.9,5.8,5.4,5.8,5.9v3.6l5.1,0V5.8c0-1.4-1.1-2.5-2.5-2.5C7.5,3.3,6.7,3.8,6.2,4.5z
	 M9.8,14.8c0,0.8-0.6,1.4-1.4,1.4S7,15.6,7,14.8v-1.7c0-0.8,0.6-1.4,1.4-1.4s1.4,0.6,1.4,1.4V14.8z"/>
</svg>
