<svg xmlns="http://www.w3.org/2000/svg" width="20" height="15.25" viewBox="0 0 20 15.25">
  <defs>
    <style>
      .cls-1 {
        fill: none;
        stroke: #ccc;
      }
    </style>
  </defs>
  <path id="Icon_awesome-envelope" data-name="Icon awesome-envelope" class="cls-1" d="M18.64,9.205A.223.223,0,0,1,19,9.38v7.589a1.782,1.782,0,0,1-1.781,1.781H1.781A1.782,1.782,0,0,1,0,16.969V9.384a.222.222,0,0,1,.36-.174c.831.646,1.933,1.466,5.719,4.216C6.862,14,8.183,15.2,9.5,15.191c1.325.011,2.672-1.217,3.425-1.766C16.71,10.675,17.809,9.851,18.64,9.205ZM9.5,14c.861.015,2.1-1.084,2.724-1.536,4.924-3.574,5.3-3.885,6.435-4.776a.888.888,0,0,0,.341-.7V6.281A1.782,1.782,0,0,0,17.219,4.5H1.781A1.782,1.782,0,0,0,0,6.281v.705a.893.893,0,0,0,.341.7c1.136.887,1.51,1.2,6.435,4.776C7.4,12.916,8.639,14.015,9.5,14Z" transform="translate(0.5 -4)"/>
</svg>
