<svg xmlns="http://www.w3.org/2000/svg" width="23" height="23" viewBox="0 0 23 23">
  <defs>
    <style>
      .cls-1 {
        fill: none;
        stroke: #ccc;
      }
    </style>
  </defs>
  <path id="Icon_awesome-times-circle" data-name="Icon awesome-times-circle" class="cls-1" d="M11.563.563a11,11,0,1,0,11,11A11,11,0,0,0,11.563.563ZM16.956,14.45a.533.533,0,0,1,0,.754L15.2,16.956a.533.533,0,0,1-.754,0l-2.883-2.91-2.888,2.91a.533.533,0,0,1-.754,0L6.169,15.2a.533.533,0,0,1,0-.754l2.91-2.883L6.169,8.675a.533.533,0,0,1,0-.754L7.925,6.165a.533.533,0,0,1,.754,0l2.883,2.914,2.887-2.91a.533.533,0,0,1,.754,0L16.96,7.925a.533.533,0,0,1,0,.754l-2.914,2.883Z" transform="translate(-0.063 -0.063)"/>
</svg>
