<svg xmlns="http://www.w3.org/2000/svg" width="19" height="15.625" viewBox="0 0 19 15.625">
  <defs>
    <style>
      .cls-1 {
        fill: none;
        stroke: #ccc;
      }
    </style>
  </defs>
  <path id="Icon_awesome-list-ul" data-name="Icon awesome-list-ul" class="cls-1" d="M1.688,3.375A1.688,1.688,0,1,0,3.375,5.063,1.687,1.687,0,0,0,1.688,3.375ZM1.688,9a1.688,1.688,0,1,0,1.688,1.688A1.688,1.688,0,0,0,1.688,9Zm0,5.625a1.688,1.688,0,1,0,1.688,1.688,1.688,1.688,0,0,0-1.687-1.687Zm15.75.563H6.188a.562.562,0,0,0-.562.563v1.125a.562.562,0,0,0,.563.563h11.25A.562.562,0,0,0,18,16.875V15.75A.563.563,0,0,0,17.438,15.188Zm0-11.25H6.188a.562.562,0,0,0-.562.563V5.625a.562.562,0,0,0,.563.563h11.25A.563.563,0,0,0,18,5.625V4.5A.563.563,0,0,0,17.438,3.938Zm0,5.625H6.188a.562.562,0,0,0-.562.563V11.25a.562.562,0,0,0,.563.563h11.25A.563.563,0,0,0,18,11.25V10.125A.563.563,0,0,0,17.438,9.563Z" transform="translate(0.5 -2.875)"/>
</svg>
