<svg xmlns="http://www.w3.org/2000/svg" width="33.855" height="31.668" viewBox="0 0 33.855 31.668">
  <defs>
    <style>
      .cls-1 {
        fill: none;
        stroke: #ccc;
      }
    </style>
  </defs>
  <path id="Icon_awesome-university" data-name="Icon awesome-university" class="cls-1" d="M33.98,8.821v1.1a.548.548,0,0,1-.548.548H31.79v.821a.821.821,0,0,1-.821.821H4.137a.821.821,0,0,1-.821-.821v-.821H1.673a.548.548,0,0,1-.548-.548v-1.1a.548.548,0,0,1,.338-.506l15.88-6.023a.547.547,0,0,1,.419,0l15.88,6.023A.548.548,0,0,1,33.98,8.821ZM32.337,29.629H2.768a1.643,1.643,0,0,0-1.643,1.643v1.1a.548.548,0,0,0,.548.548h31.76a.548.548,0,0,0,.548-.548v-1.1A1.643,1.643,0,0,0,32.337,29.629ZM6.6,13.2V26.344H4.137a.821.821,0,0,0-.821.821v1.369H31.79V27.165a.821.821,0,0,0-.821-.821H28.5V13.2H24.124V26.344H19.743V13.2H15.362V26.344H10.982V13.2Z" transform="translate(-0.625 -1.747)"/>
</svg>
