<svg xmlns="http://www.w3.org/2000/svg" width="19.667" height="15" viewBox="0 0 19.667 15">
  <defs>
    <style>
      .cls-1 {
        fill: none;
        stroke: #ccc;
      }
    </style>
  </defs>
  <path id="Icon_awesome-image" data-name="Icon awesome-image" class="cls-1" d="M16.917,18.5H1.75A1.75,1.75,0,0,1,0,16.75V6.25A1.75,1.75,0,0,1,1.75,4.5H16.917a1.75,1.75,0,0,1,1.75,1.75v10.5A1.75,1.75,0,0,1,16.917,18.5ZM4.083,6.542A2.042,2.042,0,1,0,6.125,8.583,2.042,2.042,0,0,0,4.083,6.542Zm-1.75,9.625h14V12.083L13.143,8.893a.438.438,0,0,0-.619,0L7.583,13.833,5.559,11.809a.438.438,0,0,0-.619,0L2.333,14.417Z" transform="translate(0.5 -4)"/>
</svg>
