<svg xmlns="http://www.w3.org/2000/svg" width="18.099" height="16.207" viewBox="0 0 18.099 16.207">
  <defs>
    <style>
      .cls-1 {
        fill: none;
        stroke: #fff;
      }
    </style>
  </defs>
  <path id="Icon_awesome-edit" data-name="Icon awesome-edit" class="cls-1" d="M11.882,2.46l2.662,2.662a.289.289,0,0,1,0,.407L8.1,11.974l-2.739.3a.574.574,0,0,1-.635-.635l.3-2.739L11.475,2.46A.289.289,0,0,1,11.882,2.46Zm4.781-.676L15.223.343a1.154,1.154,0,0,0-1.629,0L12.549,1.388a.289.289,0,0,0,0,.407l2.662,2.662a.289.289,0,0,0,.407,0l1.045-1.045a1.154,1.154,0,0,0,0-1.629Zm-5.33,8.438v3H1.889V3.782H8.671a.363.363,0,0,0,.251-.1L10.1,2.5a.354.354,0,0,0-.251-.605H1.417A1.417,1.417,0,0,0,0,3.31V13.7a1.417,1.417,0,0,0,1.417,1.417H11.805A1.417,1.417,0,0,0,13.222,13.7V9.041a.355.355,0,0,0-.605-.251L11.436,9.971A.363.363,0,0,0,11.333,10.221Z" transform="translate(0.5 0.592)"/>
</svg>
