<svg xmlns="http://www.w3.org/2000/svg" width="14.5" height="13.013" viewBox="0 0 14.5 13.013">
  <defs>
    <style>
      .cls-1 {
        fill: none;
        stroke: #ccc;
      }
    </style>
  </defs>
  <path id="Icon_awesome-share-square" data-name="Icon awesome-share-square" class="cls-1" d="M13.324,4.159,9.949,7.346A.563.563,0,0,1,9,6.937V5.251c-3.388.023-4.818.823-3.862,4.016a.375.375,0,0,1-.586.406,4.512,4.512,0,0,1-1.74-3.36C2.813,2.939,5.569,2.27,9,2.251V.563A.563.563,0,0,1,9.949.154l3.375,3.187A.563.563,0,0,1,13.324,4.159ZM9,8.886V10.5H1.5V3H2.693a.281.281,0,0,0,.2-.087,4.569,4.569,0,0,1,1.2-.883.281.281,0,0,0-.13-.53H1.125A1.125,1.125,0,0,0,0,2.625v8.25A1.125,1.125,0,0,0,1.125,12h8.25A1.125,1.125,0,0,0,10.5,10.875V8.794a.281.281,0,0,0-.375-.265,1.684,1.684,0,0,1-.8.079A.282.282,0,0,0,9,8.886Z" transform="translate(0.5 0.513)"/>
</svg>
