<svg xmlns="http://www.w3.org/2000/svg" width="30.935" height="18.961" viewBox="0 0 30.935 18.961">
  <defs>
    <style>
      .cls-1 {
        fill: none;
        stroke: #ccc;
      }
    </style>
  </defs>
  <path id="Icon_awesome-money-bill-alt" data-name="Icon awesome-money-bill-alt" class="cls-1" d="M16.464,14.977h-.748V10.861a.374.374,0,0,0-.374-.374h-.635a1.121,1.121,0,0,0-.623.188l-.717.478a.374.374,0,0,0-.1.519l.415.623a.374.374,0,0,0,.519.1l.022-.015v2.593h-.748a.374.374,0,0,0-.374.374V16.1a.374.374,0,0,0,.374.374h2.994a.374.374,0,0,0,.374-.374v-.748A.374.374,0,0,0,16.464,14.977ZM28.439,4.5H1.5A1.5,1.5,0,0,0,0,6V20.964a1.5,1.5,0,0,0,1.5,1.5H28.439a1.5,1.5,0,0,0,1.5-1.5V6A1.5,1.5,0,0,0,28.439,4.5ZM2.245,20.216V17.223a2.993,2.993,0,0,1,2.994,2.994Zm0-10.477V6.745H5.239A2.993,2.993,0,0,1,2.245,9.739Zm12.723,8.981c-2.48,0-4.49-2.346-4.49-5.239s2.01-5.239,4.49-5.239,4.49,2.345,4.49,5.239S17.447,18.719,14.968,18.719Zm12.723,1.5H24.7a2.993,2.993,0,0,1,2.994-2.994Zm0-10.477A2.993,2.993,0,0,1,24.7,6.745H27.69Z" transform="translate(0.5 -4)"/>
</svg>
