<svg xmlns="http://www.w3.org/2000/svg" width="12.333" height="12.333" viewBox="0 0 12.333 12.333">
  <defs>
    <style>
      .cls-1 {
        fill: none;
        stroke: #fff;
      }
    </style>
  </defs>
  <path id="Icon_awesome-save" data-name="Icon awesome-save" class="cls-1" d="M10.978,4.728,8.856,2.606A1.214,1.214,0,0,0,8,2.25H1.214A1.214,1.214,0,0,0,0,3.464v8.9a1.214,1.214,0,0,0,1.214,1.214h8.9a1.214,1.214,0,0,0,1.214-1.214V5.586a1.214,1.214,0,0,0-.356-.859ZM5.667,11.964a1.619,1.619,0,1,1,1.619-1.619A1.619,1.619,0,0,1,5.667,11.964ZM8.1,4.261V6.8a.3.3,0,0,1-.3.3H1.923a.3.3,0,0,1-.3-.3V4.173a.3.3,0,0,1,.3-.3H7.7a.3.3,0,0,1,.215.089l.088.088a.3.3,0,0,1,.089.215Z" transform="translate(0.5 -1.75)"/>
</svg>
