<svg xmlns="http://www.w3.org/2000/svg" width="16.75" height="19" viewBox="0 0 16.75 19">
  <defs>
    <style>
      .cls-1 {
        fill: none;
        stroke: #fff;
      }
    </style>
  </defs>
  <path id="Icon_awesome-unlock-alt" data-name="Icon awesome-unlock-alt" class="cls-1" d="M14.062,9H5.344V5.375a2.531,2.531,0,1,1,5.062-.032v.562a.842.842,0,0,0,.844.844h1.125a.842.842,0,0,0,.844-.844V5.344A5.344,5.344,0,1,0,2.531,5.4V9H1.687A1.688,1.688,0,0,0,0,10.687v5.625A1.688,1.688,0,0,0,1.687,18H14.062a1.688,1.688,0,0,0,1.687-1.687V10.687A1.688,1.688,0,0,0,14.062,9ZM9.281,14.344a1.406,1.406,0,0,1-2.812,0V12.656a1.406,1.406,0,1,1,2.812,0Z" transform="translate(0.5 0.5)"/>
</svg>
