<svg xmlns="http://www.w3.org/2000/svg" width="17.938" height="17.938" viewBox="0 0 17.938 17.938">
  <defs>
    <style>
      .cls-1 {
        fill: none;
        stroke: #999;
        stroke-linecap: round;
        stroke-linejoin: round;
      }
    </style>
  </defs>
  <path id="Icon_feather-message-circle" data-name="Icon feather-message-circle" class="cls-1" d="M21.438,12.5a7.886,7.886,0,0,1-.847,3.576A8,8,0,0,1,13.44,20.5a7.886,7.886,0,0,1-3.576-.847L4.5,21.438l1.788-5.364A7.886,7.886,0,0,1,5.441,12.5,8,8,0,0,1,9.864,5.347,7.886,7.886,0,0,1,13.44,4.5h.471a7.98,7.98,0,0,1,7.528,7.528Z" transform="translate(-4 -4)"/>
</svg>
