<svg xmlns="http://www.w3.org/2000/svg" width="19" height="19" viewBox="0 0 19 19">
  <defs>
    <style>
      .cls-1 {
        fill: none;
        stroke: #ccc;
        stroke-linecap: round;
        stroke-linejoin: round;
      }
    </style>
  </defs>
  <g id="Icon_feather-life-buoy" data-name="Icon feather-life-buoy" transform="translate(-2.5 -2.5)">
    <path id="Caminho_43" data-name="Caminho 43" class="cls-1" d="M21,12a9,9,0,1,1-9-9A9,9,0,0,1,21,12Z"/>
    <path id="Caminho_44" data-name="Caminho 44" class="cls-1" d="M19.2,15.6A3.6,3.6,0,1,1,15.6,12,3.6,3.6,0,0,1,19.2,15.6Z" transform="translate(-3.6 -3.6)"/>
    <path id="Caminho_45" data-name="Caminho 45" class="cls-1" d="M7.4,7.4l3.816,3.816" transform="translate(-1.758 -1.758)"/>
    <path id="Caminho_46" data-name="Caminho 46" class="cls-1" d="M22.245,22.245l3.816,3.816" transform="translate(-7.698 -7.698)"/>
    <path id="Caminho_47" data-name="Caminho 47" class="cls-1" d="M22.245,11.211,26.061,7.4" transform="translate(-7.698 -1.758)"/>
    <path id="Caminho_48" data-name="Caminho 48" class="cls-1" d="M22.245,11.637,25.422,8.46" transform="translate(-7.698 -2.184)"/>
    <path id="Caminho_49" data-name="Caminho 49" class="cls-1" d="M7.4,26.061l3.816-3.816" transform="translate(-1.758 -7.698)"/>
  </g>
</svg>
