<svg xmlns="http://www.w3.org/2000/svg" width="9.5" height="8.821" viewBox="0 0 9.5 8.821">
  <defs>
    <style>
      .cls-1 {
        fill: #fffc00;
      }
    </style>
  </defs>
  <path id="Icon_ionic-ios-star" data-name="Icon ionic-ios-star" class="cls-1" d="M11.39,6.429H8.27L7.322,3.6a.343.343,0,0,0-.645,0L5.73,6.429H2.589a.34.34,0,0,0-.339.339.249.249,0,0,0,.006.057.326.326,0,0,0,.142.24L4.962,8.871l-.984,2.861a.34.34,0,0,0,.117.382.328.328,0,0,0,.191.083A.416.416,0,0,0,4.5,12.12L7,10.337,9.5,12.12a.4.4,0,0,0,.212.076.3.3,0,0,0,.189-.083.336.336,0,0,0,.117-.382L9.036,8.871l2.543-1.824.061-.053a.324.324,0,0,0-.25-.566Z" transform="translate(-2.25 -3.375)"/>
</svg>
