<svg xmlns="http://www.w3.org/2000/svg" width="22.875" height="13.5" viewBox="0 0 22.875 13.5">
  <defs>
    <style>
      .cls-1 {
        fill: none;
        stroke: #ccc;
      }
    </style>
  </defs>
  <g id="Icon_ionic-ios-videocam" data-name="Icon ionic-ios-videocam" transform="translate(-1.75 -8.5)">
    <path id="Caminho_10" data-name="Caminho 10" class="cls-1" d="M29.539,10.8a.834.834,0,0,0-.454.132L24.861,13.6a.418.418,0,0,0-.2.352V17.66a.418.418,0,0,0,.2.352l4.224,2.666a.878.878,0,0,0,.454.132h1.016a.416.416,0,0,0,.42-.415v-9.18a.419.419,0,0,0-.42-.415Z" transform="translate(-6.849 -0.55)"/>
    <path id="Caminho_11" data-name="Caminho 11" class="cls-1" d="M14.042,21.5H4.765A2.523,2.523,0,0,1,2.25,18.99V11.51A2.518,2.518,0,0,1,4.76,9h9.277a2.518,2.518,0,0,1,2.51,2.51v7.476A2.512,2.512,0,0,1,14.042,21.5Z"/>
  </g>
</svg>
