<svg xmlns="http://www.w3.org/2000/svg" width="15.78" height="20.285" viewBox="0 0 15.78 20.285">
  <defs>
    <style>
      .cls-1 {
        fill: none;
        stroke: #ccc;
      }
    </style>
  </defs>
  <path id="Icon_ionic-ios-hand" data-name="Icon ionic-ios-hand" class="cls-1" d="M20.6,6.587a.97.97,0,0,0-.978.955v5.07a.413.413,0,0,1-.825,0V5.132a.978.978,0,0,0-1.956,0v5.877a.413.413,0,0,1-.825,0V4.33a.978.978,0,0,0-1.956,0v7.48a.413.413,0,0,1-.825,0V5.933a.978.978,0,0,0-1.956,0V16.051L9.994,14.957c-1.21-1.052-2.234-1.5-3.068-.728-.561.547.32,1.432,1.242,2.466.89,1,3.244,4.259,5.251,5.436a3.618,3.618,0,0,0,1.882.528h2.651c2.137,0,3.634-1.757,3.634-4.319V7.541A.978.978,0,0,0,20.6,6.587Z" transform="translate(-6.306 -2.875)"/>
</svg>
