<svg data-name="Camada 1" xmlns="http://www.w3.org/2000/svg" width="18.23165" height="19.99842" viewBox="0 0 18.23165 19.99842">
  <defs>
    <style>
      .cls-1 {
        fill: none;
        stroke: #ccc;
      }
    </style>
  </defs>
  <title>simple-podcasts</title>
  <path id="Icon_simple-podcasts" data-name="Icon simple-podcasts" class="cls-1" d="M9.063,19.499s2.084,0,2.084-6.17a2.085,2.085,0,0,0-4.17,0C6.978,19.499,9.063,19.499,9.063,19.499Zm2.775-3.17.042-.285c.091-.04.182-.078.274-.119a7.531,7.531,0,0,0,3.442-3.161,7.43606,7.43606,0,0,0,.77-2.036,7.332,7.332,0,0,0,.131-2.445,7.06507,7.06507,0,0,0-.61-2.206,7.2,7.2,0,0,0-1.523-2.2,7.47788,7.47788,0,0,0-2.276-1.561,7.209,7.209,0,0,0-2.787-.619A7.428,7.428,0,0,0,2.488,5.74a7.655,7.655,0,0,0-.714,2.159A7.421,7.421,0,0,0,5.74,15.75c.179.082.357.166.548.249.012.1.036.2.047.31.059.347.131.7.215,1.049a9.30119,9.30119,0,0,1-.953-.37,8.7,8.7,0,0,1-4.038-3.764A8.87989,8.87989,0,0,1,.69,10.841,8.261,8.261,0,0,1,.571,8.018,8.95216,8.95216,0,0,1,1.31,5.469a8.8609,8.8609,0,0,1,1.8-2.536A8.289,8.289,0,0,1,5.728,1.179a8.652,8.652,0,0,1,11.1,4.12,8.50009,8.50009,0,0,1,.8,2.514,8.389,8.389,0,0,1-.013,2.728,8.587,8.587,0,0,1-4.67,6.313c-.42334.206-1.327.541-1.327.541S11.782,16.69,11.838,16.329Zm.202-2.702a5.10039,5.10039,0,0,0-.036-.747,2.2262,2.2262,0,0,0-.059-.274,4.323,4.323,0,0,0,1.083-1.324,4.444,4.444,0,0,0,.441-1.228,4.388,4.388,0,0,0,.048-1.476,4.7348,4.7348,0,0,0-.357-1.279,4.62484,4.62484,0,0,0-.917-1.322,4.709,4.709,0,0,0-1.335-.918,4.53728,4.53728,0,0,0-3.502-.083,4.575,4.575,0,0,0-1.37.857,4.27092,4.27092,0,0,0-.978,1.286,4.561,4.561,0,0,0-.43,1.256,4.44392,4.44392,0,0,0-.036,1.37,4.528,4.528,0,0,0,1.536,2.854l-.072.321a3.923,3.923,0,0,0-.036.75v.334a5.62,5.62,0,0,1-1.987-2.105,5.224,5.224,0,0,1-.572-1.56A5.3999,5.3999,0,0,1,3.39,8.481a5.66516,5.66516,0,0,1,.453-1.609A5.79989,5.79989,0,0,1,4.998,5.193,5.567,5.567,0,0,1,6.677,4.038a5.685,5.685,0,0,1,4.419-.107,5.585,5.585,0,0,1,1.739,1.083,5.724,5.724,0,0,1,1.775,3.2,5.6,5.6,0,0,1,.036,1.727,5.43707,5.43707,0,0,1-.465,1.62,9.77481,9.77481,0,0,1-2.149,2.43Zm-.977-5.208a2.105,2.105,0,1,0,0,.017Z" transform="translate(-0.00158 -0.00058)"/>
</svg>
